<svg xmlns="http://www.w3.org/2000/svg" viewBox="0 0 71.207 54.598"><defs><style>.a{fill:#e70000;}</style></defs><title>About Us Icons </title><path class="a" d="M46.47,48.943q7.157-4.791,10.38-9.317a28.192,28.192,0,0,0,4.462-11.709,26.771,26.771,0,0,1-6.184,1.06,11.8,11.8,0,0,1-9.365-4.064q-3.532-4.064-3.534-10.6T45.807,3.887A12.289,12.289,0,0,1,55.3,0,13.665,13.665,0,0,1,67.5,6.548a25.86,25.86,0,0,1,3.711,14.158q0,19.379-20.5,33.892Zm-42.23,0q7.156-4.791,10.381-9.317a29.062,29.062,0,0,0,4.55-11.709,27.867,27.867,0,0,1-6.273,1.06,11.856,11.856,0,0,1-9.364-4.02Q0,20.937,0,14.312,0,7.772,3.578,3.887A12.29,12.29,0,0,1,13.075,0,13.665,13.665,0,0,1,25.267,6.548a25.869,25.869,0,0,1,3.71,14.158q0,19.379-20.5,33.892Z"></path></svg>