<svg xmlns="http://www.w3.org/2000/svg" viewBox="0 0 71.207 54.598"><defs><style>.a{fill:#e70000;}</style></defs><title>About Us Icons</title><path class="a" d="M24.737,5.654q-7.156,4.791-10.381,9.318A28.206,28.206,0,0,0,9.894,26.68a26.841,26.841,0,0,1,6.185-1.06,11.805,11.805,0,0,1,9.365,4.064q3.531,4.065,3.534,10.6T25.4,50.71A12.285,12.285,0,0,1,15.9,54.6,13.664,13.664,0,0,1,3.711,48.049,25.855,25.855,0,0,1,0,33.892Q0,14.512,20.5,0Zm42.229,0q-7.155,4.791-10.381,9.318A29.063,29.063,0,0,0,52.036,26.68a27.916,27.916,0,0,1,6.273-1.06,11.861,11.861,0,0,1,9.364,4.02q3.532,4.021,3.534,10.646,0,6.538-3.578,10.424a12.29,12.29,0,0,1-9.5,3.888,13.668,13.668,0,0,1-12.192-6.549A25.862,25.862,0,0,1,42.23,33.892q0-19.38,20.5-33.892Z"></path></svg>