<svg xmlns="http://www.w3.org/2000/svg" viewBox="0 0 41.898 46.344">
    <defs>
        <style>
            .a {
                fill: #e70000;
            }
        </style>
    </defs>
    <title>Section Icons</title>
    <path class="a" d="M16.418,36.225a8.429,8.429,0,0,0-.95-3.015,26.625,26.625,0,0,0-3.175-4.276,11.87,11.87,0,0,1-2.7-5.2,11.564,11.564,0,0,1,19.837-10.1A11.27,11.27,0,0,1,32.25,23.947a9.9,9.9,0,0,1-1.935,4.046c-.907,1.184-1.876,2.321-2.789,3.5a9.731,9.731,0,0,0-2.012,4.393c-.026.16-.041.323-.059.473.764.345,1.061.731.989,1.26-.088.644-.544.994-1.339,1-1.99.007-3.981,0-5.971.005-.814,0-1.629.018-2.443,0-.927-.023-1.532-.793-1.159-1.516C15.7,36.787,16.055,36.573,16.418,36.225Zm-4.9-17a.962.962,0,0,0,.664.854.791.791,0,0,0,.952-.414c.1-.216.137-.465.245-.678a20.023,20.023,0,0,1,1.174-2.223,7.284,7.284,0,0,1,3.112-2.535c.082-.038.165-.074.244-.117a.85.85,0,0,0,.465-1.125.859.859,0,0,0-1.2-.345,9.463,9.463,0,0,0-4.724,4.346C12.074,17.7,11.826,18.476,11.519,19.223Z"></path>
    <path class="a" d="M20.966,41.917c1.417,0,2.833-.011,4.25,0,.994.01,1.571.869,1.076,1.635a1.287,1.287,0,0,1-.823.53,2.3,2.3,0,0,0-1.863,1.242,2.142,2.142,0,0,1-1.912,1.005c-.482.018-.965.013-1.447.006a2.231,2.231,0,0,1-2.012-1.082A2.15,2.15,0,0,0,16.469,44.1a1.047,1.047,0,0,1-1.037-1.139,1.111,1.111,0,0,1,1.194-1.048c1.447-.013,2.894,0,4.34,0Z"></path>
    <path class="a" d="M20.962,39.171c1.432,0,2.864-.013,4.3,0a1.1,1.1,0,0,1,1.116,1.488,1.15,1.15,0,0,1-1.2.706q-2.848.006-5.7,0c-.98,0-1.96.01-2.939-.013a1.077,1.077,0,0,1-1.083-.909,1.06,1.06,0,0,1,.6-1.155,1.893,1.893,0,0,1,.7-.123c1.4-.011,2.8-.005,4.2-.005Z"></path>
    <path class="a" d="M3.273,22.066c-.708,0-1.417.016-2.125,0a1.084,1.084,0,0,1-1.11-.818,1.037,1.037,0,0,1,.518-1.228,1.789,1.789,0,0,1,.739-.157c1.326-.015,2.652-.013,3.978,0a1.906,1.906,0,0,1,.7.13A1.035,1.035,0,0,1,6.57,21.1a.972.972,0,0,1-.818.9,9.237,9.237,0,0,1-1.258.072c-.407.01-.814,0-1.221,0Z"></path>
    <path class="a" d="M38.578,22.069c-.709,0-1.418.019-2.126,0a1.111,1.111,0,0,1-1.113-.825,1.061,1.061,0,0,1,.532-1.228,1.281,1.281,0,0,1,.558-.153c1.432-.015,2.866-.04,4.3,0a1.1,1.1,0,0,1,1.124,1.424,1.183,1.183,0,0,1-1.237.791c-.678.01-1.357,0-2.035,0Z"></path>
    <path class="a" d="M36.155,6.948a3.857,3.857,0,0,1-.478.83c-.973,1.01-1.969,2-2.972,2.977a1.1,1.1,0,1,1-1.547-1.569c.981-1,1.977-1.989,2.972-2.977a1.1,1.1,0,0,1,1.278-.3A1.263,1.263,0,0,1,36.155,6.948Z"></path>
    <path class="a" d="M36.076,34.861A1.117,1.117,0,0,1,35.412,36a1.037,1.037,0,0,1-1.21-.228c-.8-.78-1.58-1.574-2.367-2.364-.255-.256-.521-.5-.755-.778a1.092,1.092,0,0,1,0-1.514,1.053,1.053,0,0,1,1.506-.041c1.091,1.039,2.15,2.112,3.2,3.193A1.78,1.78,0,0,1,36.076,34.861Z"></path>
    <path class="a" d="M11.115,9.857c-.029.621-.21.98-.616,1.163a1.118,1.118,0,0,1-1.329-.267Q7.808,9.4,6.456,8.028a4.458,4.458,0,0,1-.37-.4,1.1,1.1,0,0,1,.087-1.549,1.134,1.134,0,0,1,1.52.071c.438.415.857.85,1.284,1.276.566.565,1.15,1.113,1.69,1.7A3.71,3.71,0,0,1,11.115,9.857Z"></path>
    <path class="a" d="M11.111,32.048a2.813,2.813,0,0,1-.406.7c-.984,1.02-1.992,2.017-3,3.009a1.123,1.123,0,0,1-1.521.075,1.076,1.076,0,0,1-.067-1.578c1.043-1.089,2.115-2.151,3.2-3.2a1.015,1.015,0,0,1,1.222-.137A1.146,1.146,0,0,1,11.111,32.048Z"></path>
    <path class="a" d="M19.848,3.315c0-.693-.008-1.386,0-2.079a1.1,1.1,0,1,1,2.193,0q.017,2.034,0,4.068c0,.815-.446,1.31-1.127,1.3-.654-.007-1.068-.509-1.073-1.3,0-.331,0-.663,0-.994S19.847,3.647,19.848,3.315Z"></path>
</svg>
