<svg xmlns="http://www.w3.org/2000/svg" viewBox="0 0 45.943 45.943">
    <defs>
        <style>
            .a {
                fill: #e70000;
            }
            .b {
                fill: none;
                stroke: #e70000;
                stroke-miterlimit: 10;
            }
        </style>
    </defs>
    <title>Section Icons</title>
    <path class="a" d="M24.371,43.392c-.221-.834-.684-1.254-1.377-1.266-.678-.011-1.119.378-1.412,1.248A20.333,20.333,0,0,1,2.562,24.379a1.393,1.393,0,0,0,1.253-1.455c-.006-.672-.406-1.077-1.243-1.339a20.331,20.331,0,0,1,18.989-19c.443,1,.834,1.309,1.551,1.241.651-.061,1.067-.468,1.256-1.271A20.283,20.283,0,0,1,36.521,7.6a20.062,20.062,0,0,1,6.86,13.972c-.894.317-1.243.715-1.239,1.415s.348,1.074,1.23,1.388A20.325,20.325,0,0,1,24.371,43.392Zm8.876-29.31a1.31,1.31,0,0,0-1.1-1.326,1.458,1.458,0,0,0-1.363.462Q27.344,16.664,23.9,20.1a.56.56,0,0,1-.535.184,2.6,2.6,0,0,0-2.64,1.162,2.72,2.72,0,0,0,2.449,4.247,1.01,1.01,0,0,1,.909.35c1.1,1.124,2.222,2.235,3.341,3.345a1.439,1.439,0,0,0,1.674.28,1.272,1.272,0,0,0,.7-1.429,2.022,2.022,0,0,0-.508-.9c-1.1-1.141-2.231-2.257-3.363-3.37a.639.639,0,0,1-.238-.679,1.14,1.14,0,0,0,0-.577c-.109-.361.073-.562.3-.79q3.378-3.357,6.743-6.728A1.473,1.473,0,0,0,33.247,14.082Z"></path>
    <circle class="b" cx="22.972" cy="22.972" r="22.472"></circle>
</svg>
