<?xml version="1.0" standalone="no"?>
<!DOCTYPE svg>
<svg version="1.0" xmlns="http://www.w3.org/2000/svg" width="153.000000pt" height="153.000000pt" viewBox="0 0 153.000000 153.000000" preserveAspectRatio="xMidYMid meet">

    <g transform="translate(0.000000,153.000000) scale(0.100000,-0.100000)" fill="#0F367D" stroke="none">
        <path d="M606 1514 c-150 -33 -274 -101 -381 -209 -115 -115 -182 -243 -210
            -401 -19 -109 -19 -159 0 -269 73 -419 474 -692 899 -611 233 45 441 210 542
            430 49 107 67 208 62 346 -4 106 -10 138 -35 213 -43 124 -85 189 -188 292
            -98 99 -189 154 -320 195 -94 29 -272 36 -369 14z m360 -408 c15 -12 17 -17 7
            -27 -7 -7 -13 -35 -13 -61 l0 -48 95 0 95 0 0 -245 c0 -213 2 -245 16 -253 9
            -5 14 -18 12 -28 -3 -18 -19 -19 -398 -22 -217 -1 -405 0 -417 3 -26 6 -30 27
            -8 45 12 10 15 55 17 254 l3 241 103 3 102 3 -1 42 c0 23 -4 51 -8 62 -17 41
            1 45 193 45 142 0 186 -3 202 -14z"/>
        <path d="M644 976 c-3 -8 -4 -27 -2 -43 3 -26 7 -28 43 -28 40 0 40 0 43 43
            l3 42 -41 0 c-26 0 -43 -5 -46 -14z"/>
        <path d="M810 945 l0 -45 40 0 40 0 0 45 0 45 -40 0 -40 0 0 -45z"/>
        <path d="M450 825 l0 -45 39 0 c44 0 58 20 47 66 -5 20 -12 24 -46 24 l-40 0
            0 -45z"/>
        <path d="M651 856 c-7 -8 -11 -27 -9 -43 3 -25 7 -28 46 -31 l43 -3 -3 43 c-3
            40 -5 43 -34 46 -18 2 -36 -3 -43 -12z"/>
        <path d="M817 864 c-4 -4 -7 -25 -7 -46 0 -38 0 -38 41 -38 l40 0 -3 43 c-3
            39 -5 42 -33 45 -17 2 -34 0 -38 -4z"/>
        <path d="M994 856 c-3 -8 -4 -27 -2 -43 3 -24 8 -28 41 -31 l37 -3 0 45 c0 46
            0 46 -35 46 -22 0 -38 -6 -41 -14z"/>
        <path d="M657 737 c-13 -9 -18 -23 -15 -42 3 -28 7 -30 46 -33 l43 -3 -3 43
            c-3 37 -6 43 -28 46 -14 2 -33 -3 -43 -11z"/>
        <path d="M823 743 c-8 -2 -13 -22 -13 -44 0 -39 0 -39 40 -39 l40 0 0 45 c0
            43 -1 45 -27 44 -16 0 -34 -3 -40 -6z"/>
        <path d="M450 701 l0 -41 46 0 45 0 -3 38 c-3 36 -4 37 -45 40 l-43 3 0 -40z"/>
        <path d="M990 700 l0 -40 40 0 40 0 0 40 0 40 -40 0 -40 0 0 -40z"/>
        <path d="M450 580 l0 -41 43 3 c41 3 42 4 42 38 0 34 -1 35 -42 38 l-43 3 0
            -41z"/>
        <path d="M990 580 l0 -40 40 0 40 0 0 40 0 40 -40 0 -40 0 0 -40z"/>
        <path d="M710 540 l0 -60 60 0 60 0 0 60 0 60 -60 0 -60 0 0 -60z"/>
    </g>
</svg>
