<?xml version="1.0" standalone="no"?>
<!DOCTYPE svg PUBLIC "-//W3C//DTDSVG20010904//EN"  "http://www.w3.org/TR/2001/REC-SVG-20010904/DTD/svg10.dtd">
<svg version="1.0" xmlns="http://www.w3.org/2000/svg" width="153.000000pt" height="153.000000pt" viewBox="0 0 153.000000 153.000000" preserveAspectRatio="xMidYMid meet">

    <g transform="translate(0.000000,153.000000) scale(0.100000,-0.100000)" fill="#0F367D" stroke="none">
        <path d="M680 1523 c-186 -24 -343 -104 -470 -240 -79 -84 -132 -171 -167
        -278 -25 -73 -27 -93 -28 -240 0 -150 2 -165 28 -239 66 -188 198 -343 365
        -430 124 -64 217 -86 357 -86 224 0 411 80 559 240 150 163 221 381 195 605
        -20 180 -87 316 -223 450 -105 103 -205 163 -330 195 -78 20 -223 32 -286 23z
        m430 -492 c0 -5 -77 -84 -172 -175 l-172 -165 -45 42 c-168 152 -310 291 -305
        298 7 12 694 12 694 0z m50 -258 c0 -116 -3 -219 -6 -228 -5 -13 -25 1 -95 71
        -66 66 -92 85 -105 80 -15 -6 -1 -23 75 -100 73 -74 89 -95 76 -100 -24 -9
        -658 -7 -672 2 -9 6 12 35 69 96 63 68 78 90 69 99 -10 9 -32 -9 -100 -82 -82
        -88 -88 -92 -94 -70 -9 33 -8 431 1 446 4 7 75 -52 197 -167 l190 -178 135
        128 c74 71 160 153 190 184 38 39 56 52 62 43 4 -6 8 -107 8 -224z"/>
    </g>
</svg>
