<?xml version="1.0" standalone="no"?>
<!DOCTYPE svg PUBLIC "-//W3C//DTD SVG 20010904//EN"
 "http://www.w3.org/TR/2001/REC-SVG-20010904/DTD/svg10.dtd">
<svg version="1.0" xmlns="http://www.w3.org/2000/svg"
 width="153.000000pt" height="153.000000pt" viewBox="0 0 153.000000 153.000000"
 preserveAspectRatio="xMidYMid meet">

<g transform="translate(0.000000,153.000000) scale(0.100000,-0.100000)"
fill="#0F367D" stroke="none">
<path d="M665 1519 c-86 -10 -213 -54 -291 -100 -82 -48 -213 -180 -262 -264
-22 -38 -53 -106 -69 -150 -26 -75 -28 -90 -28 -240 0 -150 2 -165 28 -240 41
-115 100 -209 186 -296 87 -86 181 -145 296 -186 75 -26 90 -28 240 -28 147 1
167 3 240 28 247 83 441 294 502 545 21 88 21 266 0 354 -91 377 -452 625
-842 577z m295 -365 c115 -55 186 -144 215 -269 20 -85 14 -158 -21 -234 -19
-42 -22 -56 -12 -62 7 -4 10 -10 8 -12 -16 -12 -100 -55 -100 -50 0 4 8 30 17
59 12 40 20 51 29 44 17 -15 45 61 52 141 6 88 -12 157 -59 229 -67 99 -202
167 -315 158 -24 -2 -46 1 -48 7 -3 5 -10 3 -15 -7 -7 -10 -19 -14 -31 -11
-11 3 -20 0 -20 -6 0 -5 -6 -8 -14 -5 -7 3 -16 -2 -19 -10 -4 -9 -13 -13 -22
-10 -10 4 -15 0 -15 -10 0 -9 -8 -16 -20 -16 -11 0 -19 -5 -18 -11 2 -6 -5
-13 -14 -14 -32 -6 -19 21 27 54 74 53 137 71 240 68 77 -2 99 -6 155 -33z
m-92 -87 c2 -12 -3 -17 -17 -17 -15 0 -21 6 -21 21 0 25 33 22 38 -4z m-324
-29 c21 -20 27 -37 35 -113 13 -108 8 -130 -30 -145 -16 -7 -29 -14 -29 -17 0
-2 12 -27 26 -56 28 -54 144 -177 168 -177 8 0 21 11 30 25 21 32 49 32 151
-1 115 -38 140 -75 92 -144 -57 -84 -167 -92 -298 -24 -108 57 -244 194 -293
294 -77 160 -65 291 33 357 43 29 83 29 115 1z m235 -134 c59 -35 64 -36 124
-30 34 4 73 10 86 13 17 4 22 2 19 -7 -4 -12 -139 -70 -164 -70 -12 0 -137
106 -142 121 -7 17 16 9 77 -27z m311 -64 c0 -13 -7 -20 -20 -20 -19 0 -27 20
-13 33 13 14 33 6 33 -13z m-233 -216 c8 -20 -8 -36 -26 -25 -15 10 -8 41 9
41 6 0 13 -7 17 -16z"/>
</g>
</svg>
