<?xml version="1.0" standalone="no"?>
<!DOCTYPE svg PUBLIC "-//W3C//DTD SVG 20010904//EN"
 "http://www.w3.org/TR/2001/REC-SVG-20010904/DTD/svg10.dtd">
<svg version="1.0" xmlns="http://www.w3.org/2000/svg"
 width="153.000000pt" height="153.000000pt" viewBox="0 0 153.000000 153.000000"
 preserveAspectRatio="xMidYMid meet">

<g transform="translate(0.000000,153.000000) scale(0.100000,-0.100000)"
fill="#0F367D" stroke="none">
<path d="M645 1519 c-237 -34 -457 -195 -564 -413 -59 -120 -75 -190 -75 -336
-1 -150 14 -214 80 -350 40 -80 61 -108 138 -185 104 -103 169 -144 293 -188
75 -26 106 -31 214 -35 105 -4 140 -1 210 17 209 52 383 185 487 371 112 200
122 471 26 678 -146 317 -464 490 -809 441z m198 -399 c70 -22 151 -77 199
-134 33 -40 75 -127 84 -174 6 -31 6 -32 -30 -32 -30 0 -36 4 -36 20 0 39 -59
137 -110 183 -46 42 -138 87 -175 87 -8 0 -15 6 -15 13 0 15 11 57 15 57 2 0
32 -9 68 -20z m-241 -118 c37 -38 68 -74 68 -80 0 -7 -19 -33 -42 -58 l-42
-45 19 -35 c24 -45 123 -144 168 -169 l35 -19 41 37 c23 20 51 37 63 37 32 0
148 -117 148 -149 0 -17 -17 -41 -50 -73 -46 -44 -54 -48 -100 -48 -204 0
-514 307 -515 512 0 59 1 60 52 109 28 27 59 49 69 49 10 0 48 -31 86 -68z
m233 -31 c52 -24 103 -75 126 -126 27 -59 25 -75 -11 -75 -25 0 -32 6 -48 43
-24 52 -58 85 -109 102 -21 7 -38 18 -37 24 1 6 2 20 3 31 1 25 24 25 76 1z"/>
</g>
</svg>
