<svg xmlns="http://www.w3.org/2000/svg" viewBox="0 0 42.895 42.878">
    <defs>
        <style>
            .a {
                isolation: isolate;
            }
            .b {
                mix-blend-mode: soft-light;
            }
            .c {
                fill: #e70000;
            }
        </style>
    </defs>
    <title>Section Icons</title>
    <g class="a">
        <path class="c" d="M29.848,9.012l3.99,4.021c-.049.053-.118.132-.192.206q-10.206,10.2-20.41,20.4a2.82,2.82,0,1,1-4.081-3.888c1.123-1.139,2.262-2.262,3.394-3.392q8.52-8.512,17.039-17.026C29.685,9.231,29.764,9.115,29.848,9.012Z"></path>
        <path class="c" d="M39.325,15.1,27.818,3.551a35.542,35.542,0,0,1,2.651-2.479,5.344,5.344,0,0,1,6.879.388q2.1,1.991,4.094,4.091a5.441,5.441,0,0,1-.118,7.526Q40.326,14.09,39.325,15.1Z"></path>
        <path class="c" d="M35.5,14.642l2.121,2.122c-.056.063-.115.135-.181.2Q27.187,27.2,16.938,37.444a1.474,1.474,0,0,1-1.6.428,1.416,1.416,0,0,1-1-1.219,1.5,1.5,0,0,1,.5-1.321q2.562-2.55,5.114-5.108L35.289,14.9A3.072,3.072,0,0,0,35.5,14.642Z"></path>
        <path class="c" d="M26.1,5.28l2.109,2.113c-.054.059-.122.138-.195.212Q17.8,17.813,7.576,28.02a1.515,1.515,0,0,1-2.17.152,1.486,1.486,0,0,1,0-2.192c1.059-1.068,2.127-2.126,3.19-3.188Q17.237,14.166,25.869,5.54C25.952,5.458,26.024,5.365,26.1,5.28Z"></path>
        <path class="c" d="M3.385,29.341a3.637,3.637,0,0,0,2.643,1.543,5.164,5.164,0,0,0,6.025,5.95A3.75,3.75,0,0,0,13.505,39.5L0,42.878Z"></path>
    </g>
</svg>
