<svg xmlns="http://www.w3.org/2000/svg" viewBox="0 0 49.003 31.196">
    <defs>
        <style>
            .a {
                fill: #e70000;
            }
        </style>
    </defs>
    <title>Section Icons</title>
    <path class="a" d="M35.227,31.175H30.345c-5.174,0-10.349-.024-15.523.021-1,.008-1.284-.325-1.326-1.293a20.512,20.512,0,0,1,1.464-9.247c1.39-3.194,2.944-4.886,6.467-6.925A7.38,7.38,0,0,1,17.635,7.2a7.079,7.079,0,0,1,2.227-5.315,6.57,6.57,0,0,1,9.727.583c2.9,3.416,2.056,8.1-2.1,11.314a12.669,12.669,0,0,1,6.652,7.338A18.6,18.6,0,0,1,35.227,31.175Z"></path>
    <path class="a" d="M48.819,31.113H36.764a21.286,21.286,0,0,0-2.64-13.277L36.789,16.1a6.427,6.427,0,0,1-3.232-5.723A6.137,6.137,0,0,1,35.606,5.79a5.711,5.711,0,0,1,8.3.6c2.521,2.977,1.84,6.888-1.778,9.779a11.2,11.2,0,0,1,5.759,6.379A16.7,16.7,0,0,1,48.819,31.113Z"></path>
    <path class="a" d="M12.163,31.105H.573C-1.362,26.694,1.808,19.21,7.05,16.113A6.419,6.419,0,0,1,3.856,10,5.972,5.972,0,0,1,5.863,5.782a5.724,5.724,0,0,1,8.153.419c2.61,2.92,2.023,6.749-1.54,9.95l2.4,1.529A21.291,21.291,0,0,0,12.163,31.105Z"></path>
</svg>
